<mxfile host="65bd71144e">
    <diagram id="aUaqDtPkQDNLmnntXned" name="Page-1">
        <mxGraphModel dx="826" dy="561" grid="1" gridSize="10" guides="1" tooltips="1" connect="1" arrows="1" fold="1" page="1" pageScale="1" pageWidth="827" pageHeight="1169" math="0" shadow="0">
            <root>
                <mxCell id="0"/>
                <mxCell id="1" parent="0"/>
                <mxCell id="3" value="Vertical Container" style="swimlane;whiteSpace=wrap;html=1;" vertex="1" parent="1">
                    <mxGeometry x="80" y="150" width="600" height="360" as="geometry"/>
                </mxCell>
                <mxCell id="4" value="" style="shape=image;imageAspect=0;aspect=fixed;verticalLabelPosition=bottom;verticalAlign=top;image=data:image/png,iVBORw0KGgoAAAANSUhEUgAAAV0AAABqCAIAAACQ4hVBAAAAA3NCSVQICAjb4U/gAAAgAElEQVR4nO2deVwT19rHJythCyHsLgiiaDUEUbAIWqmXUgVUXFoFutfa1goiFmttC+iHa0trtR+0tRXF5VZT9VIUxaoEirRaQFEIYUcNEMwGYU/IOu8f05s3DSEGyAwQ5vtXZjKZ3zmZmWeec85znoMBQRBAgRMmk+ns7Eyn081VEfkKIi86JnUcwwJgkZGZtAgEgqioqOrqanNVRL6CyIuOSR3HtgCoXYCXxMTE/v5+M1ZEvoLIi45JHce2AKhdgBEGgxEYGGjGishXEHnRManjmBcAtQtwIRAIfv7557i4OHNVRL6CyIuOSR3HQwFQuwAXaWlpWVlZZqyIfAWRFx2TOo6HAqB2ARaYTKa3t7eLi4u5KiJfQeRFx6SO46QAeOQlJwOnTp06d+6cGSsiX0HkRcekjuOkAKi/YHri4uIOHTpkxorIVxB50TGp4/gpAGoXTAzagjAD0cncgoDAoPGOpoXBYFy7dk2zyeFw7t69GxQU5OHh8cknn8ARr4awIvIVRF50TOo4rgoAgChwcv78eQAAzp8/b66KyFcQedExqePYFgBtR6CgoAwCMQs0CYmJiaHRaAAA0Gi0mJgY81NEvoLIi45JHce8AGj/AgoKii5oOwIFBUUX1C6gAAAApKSkjHURYGcy1NFUoO0IFAAAAE9PzydPnox1KeBlMtTRVKD+AgoKii5mPj9CJz5Em7ENfUdBGc+Ys7+QkpKyd+9eAABYLFZXVxf0AfqKSqWOZclQUMY3ZusvsFgssVgMtSdjY2Mh7yAiIsKwmxAbG2vMyVFfA8W8MVu7AADAkSNHoA+QsyAQCCgUiuGfjP6Bx2AwBr7V28srEAgKCwufeebo6GhTKTKZTJFIpL2nr6+PwWAYozgCOQCt4+gUDTO4PCwWa9GiRWFhYXl5eSP7ymztgmZuyZEjR/z9/QEAMOaajZ4RjO8IBIKhOkG0GeqZGYGizgMzLEY2gIXWUYPeOo63YUHzH6cMDg4+duwYnU6Pi4sTi8Wjb0dQqVSNJ2I2TIYxvMlQR1Nhtv4CBIvFqqyshHwHsVjM4XAMH492HKCgAOY9HgEAQHp6uq+vr2azsrJyDAuDgjJRMHO7cPHixe3bt0OfIyMj+/v7BQIBkgXQjIwigEAgYDAYg7vW4ECnXghUk8ViMZlMuFUGg9hfqo3h/xOBf9vM7UJ5ebmmmyc6OrqyshLJXGDBwcFr165FRi4uLi4tLQ0AgLq6OicnJ7h7QHx9fW1sbDw9PT09PW1sbD799FNY5QAASE9Pf+mllzCDgG9thSNHjnh6era3t7e3t/v4+CBjlQzfNojdVGbev6CT8QqZZT9ZLFZ6enpgYCCFQnn69CkCigwG4/Hjx9ojT4mJia+++qrxRvCNN94YlqKHh4eNjU1fX9+UKVMOHDgw1DiCCeFwODExMTo7b926ZbwFHFYdGQxGfHw8n8+H/sNXX32VRqOx2Wz43iuGbxukbypk0jxMTmJiYjw8PJARwuPxmk0E0n4hn6Fk+/btg/dUVlbCJEej0XSunYeHR3JyMkxy2hi+bZC5qcy8HTFJOHToUHl5uWazrq4OAIAVK1aMXYlMj47zDHn18DmAbDZbZ09QUNCvv/4Kk9x4w8zbEZMEFxcXbf/27NmzMTExcPeksFiszMxMsViMTIbi0NBQ7c3Dhw8PjtiDm8kT/oDaBfMBivw9evRoUFAQ3IEYt27dolKpn3/+OQAANBpt27Zt+/btg1VRm9jY2C+//BJWCWtra509HA5nbFe7RxK0HWFuhIaGIjCkl5ycfOTIEchPKSgo2L9/P2IjsgKBgMPhwO2hrF27VieSuqGhAVbFcQVqF8yH0NDQ6Ojoffv2HT58eNWqVbA+qNqjg3Q63dHREYGhSoi0tDSdNgUcHDp0yNLSUpP6LSUlZfHixXCLjh9Qu2CGhIaGUiiUDz/8EKbzs1gsnfAwGxubmpoamOR0+OWXX+bOnQu3iouLC5vNbmpqioiIiIuL27BhA4VC8fDwgFt3nID2L0x4BAKBl5fX22+/rT2Sb2NjA98ot6+vL41Gq6qqgun8BmCxWO3t7QiESwAA4OLiot1Nc/fu3Xnz5iGgOx5A/YUJj0AgGNwfBkUcwaTo4eFx+PBh7T0ikSgyMhImOW1u376NgAoAAEwmU9vOQp0acHd2jh9QuzDhodPpNBoNGhqAgF6qx44dg0kxMjLSx8dHs8lgMGQymXYB4KOkpAQBFQAATp06lZiYqNlMTEyMiYlBJl52XAB34NTkJCYmJiYmxtraGo/Hh4eHx8TEwBeZB4Ign88PCgpKTk7m8/nnz5+HOzKPz+eHh4dnZGSAIJiRkeHo6Jifnw+fnDZQKDQCQvn5+TExMXw+v7KyErqaCIgavm2QvKnMPy/L5IHJZF65coVKpW7btg2B6WFMJvPUqVOBgYHwzVwajEAguHjxIjKKLBYrOzsbAIANGzZMIk8BAIDJkK8JBQVluKD9CygoKLqgdgEFBUUX1C6goKDogtoFFBQUXVC7gIKCogtqF1BQUHRB7QIKCoouqF1AQUHRBbULKCgouqB2AQUFRRfULqCgoOiC2gUUFBRdULuAgoKiC2oXUFBQdEHtAgoKii6oXUBBQdEFtQsoKCi6DGkXent7uVxuW1ubVCrV7Gxvb29vb+/s7FSr1SPTY7FYBw4cePTo0ch+Phi5XP7TTz9VVlaa6oQoKCi41NTUwXtbW1vT0tIyMjIyMzP//PNPOp1OpVKvXr167NixkpKS8vJyEARnzpw5XLG2trasrKyAgIDnn38eg8GMoLgikejBgwdYLNbOzu7vCuBwXl5e6enpbm5u2pnR5XJ5W1ubQqGQyWTt7e0SiYREIuFwuBGIjgC5XM7hcNhs9tSpU7FYeJ0yiUTS2Nj46NGjadOmwSoEAEB3d3d1dbVIJHJ1dYVbq6Ojo6KiQiaTUalUWIWEQmF5eTkOhyOTybAKTSQGp4KVy+WXLl06ffq0XC6vra1duXJlWFjYd999l5yczOVyFQqFUCg8e/ZsX1/fsDLMQi/2+Pj4EWSnValUXC63tLQ0ISGBSqVmZ2frHHDt2rW1a9d2d3dDm52dncXFxe+///66deuysrIOHz68cePGu3fvjkB6uEgkkvr6+uzs7BdeeCEgIEAqlcKn1dPTU1NTc+rUqXnz5q1fvx4+IRAEOzo6WCzWoUOHpk2blpiYCJ+QWq3m8Xjl5eWfffYZlUo9duwYTEIqlaq1tbWkpGTHjh1UKjUnJwcmoYmInldZc3Ozk5PTpk2bCATC3Llzz507J5FIEhISXnnllalTp+LxeCcnp7CwsLKysmEZoKqqqosXL27dunUExkulUt27d6+0tNTe3t7CwmJwK2bJkiVyuZzBYECbHA4HBMGAgICamhofH5/4+HihUGjCxosBurq6fvvtt56eHgqFArcWj8e7fv26Wq0mk8kgnPl7QRBsamq6deuWhYWFtbX1iFuRxqBWq1ksVnFxMZlMtrS0VKlUMAlBN1VZWZm9vT2RSIS1UhMOPXaBSCQCACCRSDR7vL29SSRSRkaGWCyG9vD5fI0nbwwymSwvL8/W1nb+/PkjKCWBQIiKioqLi6PT6Xrdcjs7u/Xr12vsAo1GW7ZsGZvNfvHFF/39/evq6vr6+pycnEYgPVzc3Nx27Njx1ltvOTg4YDDwptv29vbetWvX+vXrbW1t4VMBAACDwSxevHjXrl2hoaHQ7QEfOBwuLCwsISFh8eLFsLb7CATCunXrNDcVrFdqwqFnfUp3d3cej3f+/Hlvb2+FQvHnn3/Onj07PT392LFjH3zwwerVqxUKxcDAwLZt24yX4fP5ly9ffuWVV0ZZ3KHeHjgcLiQk5Ntvv3348KGfnx8ej29qaqqtrQ0PDwcAIDc319PTk0gkdnR0ODg4jLIMxqBUKhG7zxDWQkYIGPpaT1yhcQWbzRaLxTgcTq1WQ2ZRpVJhsdjAwEACgaB/3VofHx+RSPTw4UO1Wu3h4fHaa69ZW1vT6fTs7Oz79++7ubmtWbNmWIVQKBSdnZ0LFiwwRY30g8PhcDhcQUGBn58fAAD379/v6uqC1iYvKSmhUqmtra2urq7I2AUUlHFLb2/v2bNnc3JyJBKJSqWytLRUKBQ4HA6DwdjZ2Z07d25Iu2BlZRUZGbly5Uo8/v8PCAkJCQkJGUE5QBCsrKwkEom+vr4jq4kxkEgkMpnc0NAAbU6fPn3r1q0LFy4EAOCdd97p7e318fGZPOuUo6DoRaVS/f777+Xl5evWrauvr8fj8UuWLLl06dLChQtnzZplbW1NIpEAw+vcaxuF0QCCIJvNJpFIbm5uOkVsa2vr6uoaqhmpUqnIZLKRD7OFhQWZTObxeNBmcHBwcHAw9Hm43g0KirnS19dnaWn5xRdfeHp6ZmVlubq6hoeH19bWrl279rnnntMcZpon/5kQicTBbWCpVJqbm1taWmppaan3V1Kp1M/PT3tZYQOAIKhWq01ly1BQzBILC4vly5cTiUQul8vhcGbOnMnn8zs6OnR6jv5+ih4/fpyYmIjH4y0sLKysrORyud6TgiDY09MzMDAANebxePz06dPj4uJmzZpluDRKpXJwIJOFhcWKFStoNNpQD7NSqTS+OwCDwWAwmMnZh4SCYiRQMwEAgNu3b0ulUn9/fyaTyePxdJ7BvzewWCybzX706BGBQNizZ09gYOBQw7kymUwqlT548ODu3bulpaUAALi4uOzdu9dAUTAYTHBw8NmzZxsbG2fPnq3ZTyAQ5s2bN2/ePONrBRkXvbGSEolELBZr2g5jCxaLhQoJd7CjRmtk8aMj0AKG+P9NjoFrPUGFxhXFxcVOTk42NjZcLre1tVW/vzB9+vSjR49u3rxZIpHw+XxoeM8AmzdvhiKF0tLSioqKdu7cOVRbAAAADAbj7u4OgmB1dbW2XRgWUDNEpVIplUqVSgVtal9LhUIhkUi8vb1Hdn4TAg35KP8HkUiE754DQVCpVCoUCs1oJdxaEAhoaf5D+LSeeVOZKyUlJWVlZZpQg9ra2q6uLu0D/p4fgcVivby8LC0tr1+/XlVVhcfjly1bZuC8WCzW1tZ2xowZS5cubW5uFolEhscgpVJpfn4+Dof717/+NbKalJaWZmRk5OfnNzQ0dHZ2slgsEok0ffp0zVVsa2v773//u2/fPgQCDQ3zww8/XLhwoaCgoL29vbm5ub6+3sPDA47QI6lUevDgwatXr96+fburq6upqam1tXXWrFkaX9GECASC9PT0mzdvlpaW9vb21tbW9vT0eHl5EQgEk2tVV1d/++23+fn5bDa7p6eHzWYDAODh4WFy56ukpAS6qRobG6GbytLSUvumMlcuXLhQV1e3a9cuKpWqVCrz8vKCg4O1Pfd/BOR1dXUlJCScOXPG3t4+MzNzw4YNxmjcu3ePz+evXr3awDFqtTozM/Py5cu//fbbyGrS19cHzeOEwjCwWCyFQtE8bEql8ptvvikpKbly5crIzm9ChELhwMCASqWC3HsLCwsHBwc4nh+1Wi0QCCBnAWpNWFpaOjg4GBMmCHXTGh9QCM2LUalUUL2wWKyNjQ2FQoGjoSSVStvb27WvNZlMJpPJxjyuUPvXyFIZvqnMmMbGRqlUSqfTAQBQKpUPHjxwd3f/x1w4nfkSDx48gKIMQkJCGhoajJlioVarFQrFMw+rq6tbvXo1k8k05pzD5enTpytXrrx8+TIcJzdLmpqaTpw4MdalMD3Xrl0rKCgY61JMeHTNqp+fX3JyspWVVVFR0aFDh4YamNAGg8EYMzo4Z86cV155hcFg9Pf3D8u2GUNeXp6Tk9OqVatMfmZzhcfjjdh3G8/89ddfDx8+HOtSTHj0uFvr16/fvXs3Ho//8ccfT548acKRv/Dw8Dlz5jAYDO1cL6MEBMH6+no2m33gwAG4p/SYEyAImuUMQuh1N9almPDob4a99957ERERAAB8/fXXf/75p6nEHBwcNm3aRCQSRSKRqc6pVCpZLNYnn3yCQFYScwLqIxjrUpgexIZszRv9/v+UKVMSEhIePnzI4XC++uqrOXPmmCo/j7u7+xtvvGGSU0EQCITRT9PUwOVyGxsbDfQRKpVKe3t7WCd6IAOBQDBLuwCF2411KWBEJpOVl5dDvb96D4A8poULF9rY2IxYZch/MCQkJCUlJTEx8caNG1999VVKSoq9vf2IZSYKbW1txcXFVlZWQx0gl8s9PDxMZRdUKpVYLFYoFENdY7VabWtra5L8YmKxuLe3FwRBDAaDw+FaW1t7e3tbW1s1rQmVSuXk5GSS3viBgYHOzk4DB4Ag6OjoOPp2n1KpFIlEMpkM+gPxeLxYLIbm3UCBOlB9oXxCo9QCQbC3t7e3t3coewqCIJS1SOdqqtXq0tLStra25cuXaycB6ejoKCoqcnNzCwoK0jlPWVlZS0vL8uXLnZ2ddVTkcnlpaalcLjdg1lUqlbe392jsgqHEIXK5PCUl5auvvlq8eHF2dvZwHfXMzEzNLKbxhqWlZXx8vIWFhWlPy2AwGhsb9X41e/bs6OhonZ3t7e1nzpzhcDhDlaS/vz8sLGzdunWDv/r+++87Ojr0/mrJkiUvvfSSzs7ffvuNw+FAN5OVlVVVVVV+fv6OHTvkcjl0DwwMDISGhg5OnNPX13f06NGheqBXr14NTWzXprKy8ueff4bm8w/+CQiCcrl8x44dg8PnuVxuVlaWXiEAAN58880ZM2Zo7+nq6srNze3v74eEyGTy2bNnra2tN2zY0NPTA2lhsdjo6Ggde1dXV3fx4sWhhD766KPBAfgKhQIa7BgqPEShUDg5OX366ac6o79yuXzVqlWFhYX5+fmhoaGa/bdv3w4JCXnxxRcLCgq0TYlKpVqzZs3169fz8vKeGWE4XGpray9dumT4mOTkZENGlEgkOjo60un0f//73yNovQsEgtbW1uH+ChlsbGz09rpVV1eXlJQYsBdqtXrGjBnLly/X+61IJBqqynqjrYhEore3t729/VAtF5lMNnXqVL1f8fl8Pp+v9yvtiXEaPD09XV1doecHj8erVKoHDx74+/tr+pWVSqWLi8vgH0LJNWUymV4tvaNLdnZ2vr6+arVarx8EgqBSqdT7NpPJZAbumcFlsLCw8PHx0fQpEInEwsJCMpm8YMECyJBB/sLgCyqVSg0IKRSKwTuxWOzUqVMXLlw41MVSKpV2dnaDq4zD4bZu3frCCy/oBPvOnDlz3759c+bM0Tkeg8G88847AQEBc+fOHawikUiuXLmid8IRBAiCRCIxLCxMr4NvuOL/XwYD/kJRUdHnn3++ffv2zZs3P/NE5sEo7cIEoqys7ODBgwbemROU1NRUe3v7HTt2jHVB4GKUdsFIhvQX7t27l5SUFBUVtXHjxhGffcIxf/78kWWgnHDI5XKzHKeEplSMdSlgxMrKanCD1OTo77p48uTJ/v37AwMD4+Pjzbt3FwUFZTB67AKPx0tKSrK2tt6/f79JeqfFYnFxcfFQHXKI0dnZOTAwgKSiSCRC4J3c0dHBZDKHu+IW1Mg3/niZTKY9xNDf369JDm5aZDJZQ0PDUF0nzwSawTGsnzQ3N1+/fh2m6kwIWltbGxsbtXtVdH0BuVz+448/AgBw8OBBI9snDx8+5PF4ejtO1Wp1RkYGFoslkUgnTpwAAGDPnj3DSrhgEp4+fXr69Gkmk/ndd99Bc0XgpqKi4qeffuru7j516pTJRz00KBSKEydO9PT0ODo6Xrlypaura9euXUYm13V0dFyyZInxWhwOZ9OmTU5OThQKpbe3V6FQJCYmQsFvpoXH4+3Zs6ehoUHzToL6SgMCAvbu3Tt43E4HHx8fa2tr47W+/fbbgYEBGo125cqVZcuWRUdHI7Yo2TgBBMGUlBQPD4/du3drulR17cKPP/74xx9/fP/990YOQLS0tBw9elTveL5arT58+LCdnd1LL71ka2u7aNGi1NTUpKSkn3/+efShEFeuXKHRaF5eXoYP6+/vv3jxYnt7e319fUVFBRxTM3Roa2tjMBgYDKa6uhpa/wo+rby8vNu3b6emprq6utLp9O3bt6enp58/f96YgL9Zs2Z9+OGHxmsplUoOh/P06VMMBuPj47Nly5bAwMBRlH1IhEIhh8NxcnKC3BkoLvPevXuvvfaaMUuWrF271sh4x66urj179vT19X355ZfOzs7BwcF79+6lUCiRkZGjrcOE4uLFi7/88ssHH3yg/b/9wy4wGIyrV69+/fXXege6NKjVashbq6ioSEpKwuFwaWlpeo/Mzc0NDQ2FxpypVOpHH30UERFx4sSJpKSkUVYmJyfH0tLymXbB0tIyPDwcBMHz58///vvvCETIOjk5Qe8cFotVV1cHn11Qq9X5+fk1NTVQEgQ/Pz8fH5/i4uLHjx8/828BAIBAIAxr6jeBQNiyZUtCQgIGg7G2toYvyQUOh9u8efO7774LbWIwmEuXLkVFRb355pvGeF7GOwtlZWUXLlxITk6GcvlAM6x/+eWXoKAguFfEHD88fPiwvb3dyclJx0v62y5A2aN37tzp7+/f0NBQWVmp94aGEig2Nzc/evSorq6uqampv79/27ZtOomeIbBYrEgk+v7777dv3w45CG5ubhgMRpPKva+vTy6XQ9egq6sLSm1kZGwflODgmYdhsVhoTJ5EIiEznYZIJEIRB3C7o1gsNiEhITY2FuoY7unpefz48fTp06dPnw6HHAaDoVKp06ZN6+/vh69lBADA1KlTw8LCNGFFXC5XKBSGh4cbCEIdGW1tbTKZTPu0vr6+p0+f5vF4k8QuQKvAhYSE0Ol0ndiQv+0Cl8tNSUmRSCT379+Hlqs2cDoo6ZVCoVCr1fPnz4+KihrqyM8++6y7u1uT4q27u1ulUkFNxNbW1v/85z/37t1799133d3dr1692tHR0dfX99577y1atOiZofvQMhjGVB4C4TE5ZNaAmj179uzZs2Uy2cDAQElJSXt7e2JiIkyTSkEQbG1tvXbt2h9//GFnZwelFYdjhoWrq6smvEoqlf76668+Pj6DQypHz+ALRCAQuFyu9gqMZgwIgpcvX549e3ZQUBCUP0X727/tAoVC2bVrFw6HM2aaKuZ/qFQqR0fHgICAoY6MjY3VLkd2dvZzzz0XHR09MDBw8+ZNX1/f7u7uN998c9u2bVu2bHFxcUlISDhw4MCpU6ee6aZisVh0ABUAAIVCcefOHRaLxWAwIiMj33rrLZiE5HJ5WVnZkiVL9u/fz2Aw3njjjQMHDrz88stwaGksfnZ2tkQiWbVqFRwGCPIUtO92Lpfb19dncqHxSX19vUgkCgsLw2Kxg0em/n60oHVfYS1Hbm5ubm7uZ599RqPRqqqqoCTxOTk5rq6ur7/+OtQHgcPhWlpaBkehKhSKvr4+TcMBi8VKpVKxWCwWizWOAA6HmwwzuwZDJpO9vb3Dw8NZLBaTydSOwDchU6dOPXjw4IsvvggAwFtvvVVaWvr1118HBATA53L39/fX1NR4e3vD1Gyh0+lz586tqqpSqVQ4HE4sFre0tACTI+9rd3f3nTt35syZM1SeZIReuXfu3ElLS9u5c+eWLVsAAHB2dg4LC+NyuXfu3NmyZYumcFVVVXrHmfh8fmFhoUKhgN4bJBKJy+X+9ddfarUa8vqg6c8bN26cDBdVGwKB4O/vDwBAeHh4enr69u3bc3JyDHcbjwx7e3vIKEAsWLAgKyuLyWS++uqrJteCKCwsrK+vhy/cdt68eampqcePHz9x4oSPj09bW5udnZ2dnZ3Zp3WRy+WFhYX29vaayXV4PJ5AIGjbXyTsQmVl5ZkzZ15//fX4+HhoLANqQN66daunp0czqa6urq6lpSUpKWlwD5OFhYW7u7um/5xAINja2k6bNm3mzJnQ9Bi1Wm3yfqlxzsDAwO3bt11cXHx9fSFrGBgYuGfPHgaDsX//ftNqdXZ2Hj9+fP78+ZoxPAsLC7lcPtSETpNw//59hUIB65KimzZt8vLy+vXXXzs6OsLDw6urqykUChzZtMcVQqGwrq6OTCYXFhYCAKBUKvl8PolEunHjxoIFC6BMK6OyCz09PdCCtA4ODkMtOSUSibKysjZu3BgWFgYAQEdHR01NDTTvqLm52crKSnPhT548SSQS6XR6dXW1t7e39iias7OzTkCLq6urr68vtFz15OTJkycbN25cs2bN2bNnobEPyJkyYY48DUKhcO/evbt379bYBZVKhcfj4RutlEqlFRUVXl5e8LVT5HK5SCSaN28e5HABAJCcnEyn06dMmQKT4jjByspq7ty5zc3NLBYLg8E8efKkpaWFQqGw2ewZM2aM1i4IhcLTp097enra2NgUFBSsWLFicKBLZ2fnl19+2dnZSSKRCgsLQRCsra2VSCTLly8fGBioqamZP3++p6cndHBxcfHKlSudnZ2PHDny+eefG77n1Gr1sMJ4LS0todTmw63myIBW9MPj8QaW2xklFhYWrq6uq1ev1gyI8ng8befQhBAIhE2bNu3evVuzp7y8fMGCBUuXLjW5FsSTJ0/YbPaIVyEyhkePHu3ZsyciImLr1q0AAFRXV3O53NTUVOOXPpygUKlU7YwebW1tN27cCAkJ+fjjjzU7R24XioqKCgsLb9y4AQBAZWVlRkYGjUbTefB27tx55swZCoWSk5MDdRA6Ozt/8803AACwWKwbN27Ex8drByxQqdScnBx/f38TPk5lZWUVFRWXL19uaWk5fvy4n5/fsmXLnrmg5mjIzc3lcrkFBQVQmK27u/uKFStMfrd5eHgkJSU1NzcXFRUtXbq0uLj4+PHjb7/9NuSXmRZnZ+c1a9acO3cuIiLC09Pzu+++Ky8v37t3L0yxEgAAiMXiJ0+ewDozEovFCoVCKHVQUVHRDz/8sHnz5pCQEPgUxyF//fUXg8FoaGjIy8tzdXWNjY2Fws/xMpnsxo0bTxq44/wAAAK0SURBVJ8+XbRoEYfD6enp8fX1NTD0CNHX15ebm6t5pTs4OFRWVlZVVemE3C9dutTPz097MN/Z2RnqMLezs9u9e7f2y23//v11dXVEIjEyMvKZXdBQ9IQxNSeRSGQyOSoq6uWXXyaTyba2tnAs8aKNtbU1lAIABEEymWxjYwNHjBMWi3333XcZDAaLxaqsrBQKhevXr9eb2Wn02NjYhIWF5eXlMZnMnp6e7u7u5ORkOCZHaJg1a9ZHH31Eo9Hgk/Dy8srIyGCxWCdPnuzu7l67du26desmWy8ViUTy8fHJyMjA4/FUKlUzHow5efIkhUL5+OOPY2NjX375ZWj6TWZmpkQiuXnzZn19vU6cjFqtplAodDp9586d7u7uDAYDAIATJ0588cUXmZmZo4wtF4lE2gnwDJCamrpy5UqYQvQnFjwer7a2dtq0aQiszVlXV9fc3BwYGGjMVIVR0tvbCw0zwaoCta69vLzQfOLa4OfPn0+lUgkEQlRU1KJFi27evAlNpyUQCFCKMZ3wIbVabWlpaWtrq7Mfh8ON/q1opFEAAOD99983STZUM8DNzU1vHDoczJ07V29yMThAZj04T09PTQ8Xigbs888/X1xcPGXKlEWLFrW2tlZVVUETdaFVpAgEAv6fEAgEIpFIIpEcHR01rQPIYUbgHaLBzc3N+BkyKCgowwIvkUgKCwuhrAQVFRVCoXDOnDl37tzx8/Pj8XhNTU067QiVSkWhUFatWhUREXHhwgUor6ZYLPby8vLx8RmjWqCgoJgSfH9/P5/Pf+eddwAAAEGQQCDgcDgCgUAikZ5//vmFCxcO/g2UZyU0NPT+/ftXr16l0WhCoXDLli2TYSFgFJTJAEYul3O53BkzZmCxWLlcLhaLcTicg4ODMTNVxGLxvXv3BgYG6HQ62khDQTEb/g8as9UNJqxk1AAAAABJRU5ErkJggg==;" vertex="1" parent="3">
                    <mxGeometry x="320" y="80" width="259" height="78.66" as="geometry"/>
                </mxCell>
                <mxCell id="5" value="&lt;font style=&quot;font-size: 20px;&quot;&gt;Enter Number :&lt;/font&gt;" style="text;html=1;align=center;verticalAlign=middle;resizable=0;points=[];autosize=1;strokeColor=none;fillColor=none;" vertex="1" parent="3">
                    <mxGeometry x="10" y="60" width="160" height="40" as="geometry"/>
                </mxCell>
                <mxCell id="6" value="&lt;font style=&quot;font-size: 14px;&quot;&gt;Enter the number of iterations:&lt;/font&gt;" style="rounded=1;whiteSpace=wrap;html=1;fontSize=20;" vertex="1" parent="3">
                    <mxGeometry x="10" y="130" width="210" height="30" as="geometry"/>
                </mxCell>
                <mxCell id="7" value="CALCULATE PI" style="rounded=0;whiteSpace=wrap;html=1;fontSize=14;" vertex="1" parent="3">
                    <mxGeometry x="35" y="220" width="110" height="40" as="geometry"/>
                </mxCell>
            </root>
        </mxGraphModel>
    </diagram>
</mxfile>